<svg width="24" height="24" viewBox="0 0 24 24" fill="none" xmlns="http://www.w3.org/2000/svg">
<path d="M14.2764 4.44721C14.6088 3.78231 14.1253 3 13.382 3H10.618C9.87465 3 9.39116 3.78231 9.72361 4.44721L10.5 6H8.75C8.33579 6 8 6.33579 8 6.75C8 7.16421 8.33579 7.5 8.75 7.5H9V9H7.5C6.67157 9 6 9.67157 6 10.5V21C6 21.8284 6.67157 22.5 7.5 22.5H16.5C17.3284 22.5 18 21.8284 18 21V10.5C18 9.67157 17.3284 9 16.5 9H15V7.5H15.25C15.6642 7.5 16 7.16421 16 6.75C16 6.33579 15.6642 6 15.25 6H13.5L14.2764 4.44721Z" fill="#344E41"/>
</svg>
