<svg width="24" height="24" viewBox="0 0 24 24" fill="none" xmlns="http://www.w3.org/2000/svg">
<mask id="path-1-inside-1_307_65" fill="white">
<path d="M24 9C24 14.4 16 20.25 12 22.5C8 20 0 13.8 0 9C0 3.00001 5.25 -1.50001 12 4.5C17.25 -1.5 24 2.25 24 9Z"/>
</mask>
<path d="M12 22.5L10.94 24.196L11.9463 24.8249L12.9805 24.2432L12 22.5ZM12 4.5L10.6713 5.99482L12.1778 7.33397L13.5052 5.81701L12 4.5ZM12.9805 24.2432C15.0939 23.0544 18.2412 20.932 20.8907 18.3686C22.2173 17.0851 23.4686 15.6437 24.3987 14.1064C25.3237 12.5775 26 10.8388 26 9H22C22 9.86119 21.6763 10.8787 20.9763 12.0358C20.2814 13.1844 19.2827 14.3587 18.1093 15.4939C15.7588 17.768 12.9061 19.6956 11.0195 20.7569L12.9805 24.2432ZM26 9C26 4.97486 23.9663 1.54263 20.7742 0.138123C17.4672 -1.31695 13.5682 -0.329398 10.4948 3.18299L13.5052 5.81701C15.6818 3.3294 17.7828 3.19195 19.1633 3.79938C20.6587 4.45738 22 6.27514 22 9H26ZM13.3287 3.00519C9.59495 -0.313733 5.70432 -1.17223 2.54362 0.476834C-0.463578 2.04581 -2 5.49719 -2 9H2C2 6.50283 3.08858 4.7042 4.39388 4.02317C5.54568 3.42223 7.65505 3.31373 10.6713 5.99482L13.3287 3.00519ZM-2 9C-2 10.7319 -1.29067 12.3966 -0.381772 13.8456C0.541902 15.3181 1.78229 16.7429 3.09651 18.0374C5.72478 20.6262 8.84824 22.8886 10.94 24.196L13.06 20.804C11.1518 19.6114 8.27522 17.5238 5.90349 15.1876C4.71771 14.0196 3.7081 12.8381 3.00677 11.7201C2.29067 10.5784 2 9.66805 2 9H-2Z" fill="#344E41" mask="url(#path-1-inside-1_307_65)"/>
</svg>
