<svg width="48" height="48" viewBox="0 0 48 48" fill="none" xmlns="http://www.w3.org/2000/svg">
<path d="M16.612 16.612C15.796 17.4281 15.796 18.7512 16.612 19.5672L21.0449 24.0001L16.6122 28.4328C15.7962 29.2488 15.7962 30.5719 16.6122 31.388C17.4283 32.204 18.7514 32.204 19.5674 31.388L24.0001 26.9553L28.4328 31.388C29.2488 32.204 30.5719 32.204 31.388 31.388C32.204 30.5719 32.204 29.2488 31.388 28.4328L26.9553 24.0001L31.3882 19.5672C32.2042 18.7512 32.2042 17.4281 31.3882 16.612C30.5721 15.796 29.249 15.796 28.433 16.612L24.0001 21.0449L19.5672 16.612C18.7512 15.796 17.4281 15.796 16.612 16.612Z" fill="#344E41"/>
</svg>
