<svg width="24" height="24" viewBox="0 0 24 24" fill="none" xmlns="http://www.w3.org/2000/svg">
<path d="M11 13.4142V15.5858L12 16.5858L13 15.5858V13.4142L12 12.4142L11 13.4142Z" fill="#344E41"/>
<path fill-rule="evenodd" clip-rule="evenodd" d="M15.6894 4.24254C15.8472 3.61139 15.3698 3 14.7192 3H9.28078C8.63021 3 8.15285 3.61139 8.31063 4.24254L8.73729 5.94915C8.87886 6.51544 8.50435 7.08214 7.95648 7.28358C5.86366 8.05305 3 10.2617 3 15C3 20.6 9 22 12 22C15 22 21 20.6 21 15C21 10.2617 18.1363 8.05305 16.0435 7.28358C15.4956 7.08214 15.1211 6.51544 15.2627 5.94915L15.6894 4.24254ZM12 9.58578L15 12.5858V16.4142L12 19.4142L9 16.4142V12.5858L12 9.58578Z" fill="#344E41"/>
</svg>
